<mxfile host="app.diagrams.net" modified="2024-04-17T13:20:38.144Z" agent="Mozilla/5.0 (Windows NT 10.0; Win64; x64) AppleWebKit/537.36 (KHTML, like Gecko) Chrome/123.0.0.0 Safari/537.36" version="24.2.5" etag="rXI1g4P_xML_bdrV5Lo7" type="github">
  <diagram name="Page-1" id="UHdwua0InHRMiRy4BC6H">
    <mxGraphModel>
      <root>
        <mxCell id="0" />
        <mxCell id="1" parent="0" />
      </root>
    </mxGraphModel>
  </diagram>
</mxfile>
